PathFileType	4	(X/Y/Z)	C:/Users/opensim2020/Desktop/walking_exp_matlab/subject02_walking13_straight_02.trc	
DataRate	CameraRate	NumFrames	NumMarkers	Units	OrigDataRate	OrigDataStartFrame	OrigNumFrames	
100.00	100.00	5	41	mm	100.00	912	125	
Frame#	Time	LFHD			RFHD			LBHD			RBHD			C7			T10			CLAV			STRN			RBAK			LSHO			LUPA			LELB			LFRM			LWRA			LWRB			LFIN			RSHO			RUPA			RELB			RFRM			RWRA			RWRB			RFIN			LASI			RASI			LPSI			RPSI			LTHI			LKNE			LTIB			LANK			LHEE			LTOE			RTHI			RKNE			RTIB			RANK			RHEE			RTOE			*39			*40			
		X1	Y1	Z1	X2	Y2	Z2	X3	Y3	Z3	X4	Y4	Z4	X5	Y5	Z5	X6	Y6	Z6	X7	Y7	Z7	X8	Y8	Z8	X9	Y9	Z9	X10	Y10	Z10	X11	Y11	Z11	X12	Y12	Z12	X13	Y13	Z13	X14	Y14	Z14	X15	Y15	Z15	X16	Y16	Z16	X17	Y17	Z17	X18	Y18	Z18	X19	Y19	Z19	X20	Y20	Z20	X21	Y21	Z21	X22	Y22	Z22	X23	Y23	Z23	X24	Y24	Z24	X25	Y25	Z25	X26	Y26	Z26	X27	Y27	Z27	X28	Y28	Z28	X29	Y29	Z29	X30	Y30	Z30	X31	Y31	Z31	X32	Y32	Z32	X33	Y33	Z33	X34	Y34	Z34	X35	Y35	Z35	X36	Y36	Z36	X37	Y37	Z37	X38	Y38	Z38	X39	Y39	Z39	X40	Y40	Z40	X41	Y41	Z41	

47	0.460	1453.94922	350.42389	1736.14441	1314.04419	374.59915	1710.16638	1486.13367	484.14224	1675.36658	1349.37170	520.48267	1649.71326	1416.36682	562.55511	1528.92358	1410.05249	609.45612	1249.09314	1433.62976	423.97250	1460.70886	1431.61877	369.00592	1290.39624	1354.27856	616.51178	1348.65295	1596.65857	505.34286	1507.97937	1697.42419	520.36365	1319.36414	1737.10315	505.65393	1182.47070	1757.20386	430.87567	1070.04663	1726.83215	318.11258	992.35156	1762.87878	356.83441	971.16461	1766.98279	304.93692	929.60004	1234.25476	484.47464	1489.40149	1149.22217	517.00134	1301.22620	1129.76392	510.39755	1155.23462	1114.95593	483.28781	1037.17639	1139.27368	439.48553	909.92786	1102.33276	483.37100	907.54883	1104.98621	447.92496	843.10205	1563.81262	406.25204	986.00916	1308.10583	374.35550	976.31152	1453.89392	598.50287	1038.05298	1339.24390	589.66016	1039.77637	1624.67090	446.00809	676.74963	1610.71741	444.45465	492.99686	1587.43335	587.53888	380.76416	1550.95850	712.57544	199.15892	1489.27698	739.86902	189.59421	1601.90588	631.51508	76.98020	1253.36682	417.38370	665.18188	1317.67603	409.63892	461.14655	1325.20288	454.67334	276.86362	1380.68835	485.23529	91.20326	1440.56519	522.95038	41.35146	1369.57446	336.27618	39.44986	1375.61682	458.68411	1806.75964	-3357.24609	2845.96533	1034.26855 
48	0.470	1454.37891	337.74677	1737.54626	1314.81897	362.07544	1711.65881	1487.17981	471.83606	1677.25989	1350.14343	508.08835	1651.36548	1417.26721	550.19464	1530.65942	1409.78882	597.21295	1250.88403	1434.56189	411.66019	1462.39197	1432.02393	356.74222	1292.06689	1354.17383	604.07367	1350.71240	1597.45972	493.36258	1509.23975	1696.75415	510.16147	1319.86304	1734.90222	498.34726	1182.27942	1753.93103	428.32111	1066.65479	1723.24695	319.04758	984.20319	1759.13452	358.63419	964.80463	1761.96094	308.89764	920.04755	1235.45459	472.35037	1491.90991	1149.87671	502.33069	1303.63562	1129.58838	492.95322	1157.41919	1114.96106	463.27728	1039.91992	1139.82593	416.74686	913.84515	1102.60913	460.24344	910.36224	1105.41553	423.41428	846.75861	1563.16418	392.83224	989.10211	1307.73999	363.29123	977.87793	1454.15833	586.20276	1040.01184	1339.38293	577.74103	1041.56226	1625.58948	427.52045	680.31982	1611.23474	421.01028	495.55096	1589.55493	560.35168	377.84482	1553.31494	678.76605	191.63362	1492.01855	706.47144	180.84129	1603.22925	591.48883	73.73461	1253.82214	412.39160	664.93579	1317.85229	407.17474	460.79773	1325.40442	454.20834	277.13486	1380.91138	484.91748	91.35568	1440.72693	522.87976	41.57408	1369.59253	336.05365	39.27731	1376.29541	446.11411	1808.36121	-3357.29541	2845.99438	1034.48352 
49	0.480	1455.07629	325.20706	1738.87720	1315.60962	349.49567	1712.86829	1487.98730	459.32245	1678.85413	1350.97290	495.63815	1652.85596	1418.18335	537.75818	1532.17810	1409.49780	584.95337	1252.47803	1435.42444	399.32199	1463.87073	1432.28723	344.44629	1293.50122	1354.31836	591.98663	1352.62024	1598.35925	481.25937	1510.17896	1696.15491	499.92154	1320.20837	1732.72766	491.16937	1181.97449	1751.20288	426.36688	1063.67200	1719.55676	320.77158	976.32941	1755.61877	360.86029	958.61511	1757.47375	313.73373	911.03125	1236.43689	459.85239	1494.16760	1149.56580	486.79346	1305.80054	1129.21985	475.64243	1159.53076	1114.96643	443.23825	1042.61340	1140.41089	393.47607	917.88409	1102.97485	436.97821	913.19342	1106.06763	398.51004	850.59314	1562.32544	379.67712	991.98602	1307.27405	352.64746	978.97247	1454.79749	573.96283	1041.85071	1339.80127	565.88019	1043.06104	1626.71790	409.09689	683.78735	1611.73572	398.14282	497.95319	1591.74658	533.05371	374.15335	1555.60754	643.96674	183.22124	1494.46497	671.96918	170.98930	1604.37280	550.30560	69.79182	1254.38867	407.69830	664.61469	1317.89343	404.34680	460.50113	1325.47070	453.61987	277.40283	1381.17432	484.73572	91.58236	1440.86072	522.73621	41.88634	1369.53430	335.75098	39.09433	1377.12842	433.55923	1809.95532	-3357.41455	2845.86597	1034.26343 
50	0.490	1456.08838	312.74341	1740.08325	1316.42310	336.95416	1713.80164	1488.85974	446.84546	1680.22729	1351.83679	483.21371	1654.10205	1419.06885	525.29993	1533.51685	1409.20581	572.68646	1253.88306	1436.20972	386.99231	1465.12573	1432.42554	332.25766	1294.69580	1354.34253	579.87830	1354.41956	1599.24011	469.03482	1510.76062	1695.91724	489.94232	1320.39136	1730.67114	484.28891	1181.60742	1748.29138	424.46637	1060.45984	1716.09180	322.67615	968.55951	1752.20508	363.56049	952.66058	1752.93042	318.94586	902.24316	1237.34131	447.60883	1496.12830	1149.91882	472.69150	1307.58032	1128.83069	458.30042	1161.53833	1115.04565	422.93332	1045.40186	1140.91138	370.43970	921.89911	1103.48584	413.49149	915.99670	1106.71558	373.37088	854.45654	1560.89197	365.87100	994.39990	1306.49573	341.75134	979.61389	1455.53491	561.64471	1043.41577	1340.47607	554.10632	1044.24500	1627.85083	390.89581	687.07056	1612.10913	375.96500	500.27560	1593.89807	505.84079	369.76978	1558.04138	608.29333	174.10435	1496.95410	636.22131	160.39771	1605.79871	508.39941	65.95490	1255.37537	403.00061	664.83362	1318.30859	401.64841	460.33444	1325.87048	452.22479	277.38712	1381.36987	484.48166	91.80960	1441.08899	523.04242	41.47291	1369.48425	335.56540	38.93760	1377.71899	420.71445	1810.99609	-3357.26440	2845.88672	1034.19177 
51	0.500	1456.93762	300.06439	1740.87927	1317.07288	324.24982	1714.38159	1489.68445	434.29868	1681.31067	1352.71509	470.73770	1655.16772	1420.01782	512.79803	1534.61475	1409.00000	560.44769	1254.98877	1437.01587	374.57251	1466.14661	1432.46716	319.97772	1295.72754	1354.21558	567.57251	1355.98877	1600.18237	456.72849	1511.11255	1695.43176	479.86276	1320.14075	1728.50232	477.37650	1180.85535	1745.57507	422.86209	1057.33679	1712.76892	325.15338	960.90369	1749.01611	366.50677	946.84216	1748.66125	324.79742	893.75006	1238.07751	434.83936	1497.74475	1150.45325	457.81927	1309.36707	1128.37195	441.05176	1163.29407	1114.98755	402.84213	1047.89832	1141.64771	347.09622	926.32251	1103.78857	389.73859	918.82104	1107.36194	347.91611	858.42566	1559.16650	351.78024	996.41125	1305.61438	331.05978	979.89807	1456.87842	549.51746	1044.91809	1341.43555	542.41223	1045.21997	1629.02917	372.81061	690.15735	1612.47107	354.51282	502.40768	1596.06531	478.83826	365.03433	1560.47266	571.90021	164.56172	1499.79761	599.65039	149.32451	1607.85144	466.02386	62.72468	1256.32349	398.28293	664.92700	1318.85327	398.95502	460.17819	1325.86108	450.87973	277.61435	1381.58044	484.30542	92.12361	1441.11157	523.08179	41.60960	1369.41150	335.38998	38.62354	1378.30212	407.77551	1811.83911	-3360.30713	2845.27856	1034.24316 
